# xmcd
#
# Track frame offsets:
#	182
#	19112
#	52950
#
# Disc length: 1210 seconds
#
# Revision: 1
# Processed by: cddbd v1.5.2PL0 Copyright (c) Steve Scherf et al.
# Submitted via: audiograbber 1.83.01
#
DISCID=1a04b803
DTITLE=Asap - Megasap Mix
DYEAR=1992
DGENRE=Dance
TTITLE0=Megasap Mix II
TTITLE1=Megasap Mix I
TTITLE2=Acapella
EXTD=
EXTT0=
EXTT1=
EXTT2=
PLAYORDER=
